<svg xmlns="http://www.w3.org/2000/svg" width="61.88" height="60.794" viewBox="0 0 61.88 60.794">
  <g id="cleaning" transform="translate(-24 -48)">
    <path id="Path_44336" data-name="Path 44336" d="M395.382,378.211H385.138A1.138,1.138,0,0,1,384,377.073V360h5.691l1.43.477a7.9,7.9,0,0,1,5.4,7.491v9.106A1.138,1.138,0,0,1,395.382,378.211Z" transform="translate(-311.779 -270.556)" fill="#3a61a7"/>
    <path id="Path_44337" data-name="Path 44337" d="M444.551,309.688a1.134,1.134,0,0,1-.508-.121,8.827,8.827,0,0,1-3.923-3.923,1.138,1.138,0,1,1,2.036-1.018,6.539,6.539,0,0,0,2.906,2.906,1.138,1.138,0,0,1-.51,2.156Z" transform="translate(-359.81 -221.422)" fill="#ea9d2d"/>
    <path id="Path_44338" data-name="Path 44338" d="M265.138,236.52A1.138,1.138,0,0,1,264,235.382V230.26a6.26,6.26,0,0,1,12.52,0v3.984a1.138,1.138,0,1,1-2.276,0V230.26a3.984,3.984,0,1,0-7.967,0v5.122A1.138,1.138,0,0,1,265.138,236.52Z" transform="translate(-207.809 -152.4)" fill="#026ca2"/>
    <path id="Path_44339" data-name="Path 44339" d="M97.138,468.553A1.138,1.138,0,0,1,96,467.415v-2.276a1.138,1.138,0,0,1,2.276,0v2.276A1.138,1.138,0,0,1,97.138,468.553Z" transform="translate(-61.756 -359.759)" fill="#026ca2"/>
    <path id="Path_44340" data-name="Path 44340" d="M25.138,468.553A1.138,1.138,0,0,1,24,467.415v-2.276a1.138,1.138,0,0,1,2.276,0v2.276A1.138,1.138,0,0,1,25.138,468.553Z" transform="translate(0 -359.759)" fill="#026ca2"/>
    <path id="Path_44341" data-name="Path 44341" d="M49.138,468.553A1.138,1.138,0,0,1,48,467.415v-2.276a1.138,1.138,0,0,1,2.276,0v2.276A1.138,1.138,0,0,1,49.138,468.553Z" transform="translate(-20.585 -359.759)" fill="#026ca2"/>
    <path id="Path_44342" data-name="Path 44342" d="M73.138,468.553A1.138,1.138,0,0,1,72,467.415v-2.276a1.138,1.138,0,0,1,2.276,0v2.276A1.138,1.138,0,0,1,73.138,468.553Z" transform="translate(-41.171 -359.759)" fill="#026ca2"/>
    <path id="Path_44343" data-name="Path 44343" d="M110.8,125.642v-7.967a5.122,5.122,0,1,0-10.244,0v26.178H96V117.675a9.675,9.675,0,1,1,19.349,0v7.967Z" transform="translate(-62.431 -51.464)" fill="#3a61a7"/>
    <path id="Path_44344" data-name="Path 44344" d="M31.967,400l-3.415,5.691L24,406.829v3.415H38.8v-2.276Z" transform="translate(0 -304.865)" fill="#3a61a7"/>
    <path id="Path_44345" data-name="Path 44345" d="M102.764,295.869H89.08A9.08,9.08,0,0,1,80,286.79v-9.234A13.557,13.557,0,0,1,93.556,264h9.208Z" transform="translate(-48.033 -188.214)" fill="#cbcbcb"/>
    <path id="Path_44346" data-name="Path 44346" d="M102.764,360v18.211H89.08A9.079,9.079,0,0,1,80,369.131V360Z" transform="translate(-48.033 -270.556)" fill="#ea8249"/>
    <path id="Path_44347" data-name="Path 44347" d="M392,328h4.553v4.553H392Z" transform="translate(-318.641 -242.145)" fill="#cbcbcb"/>
    <path id="Path_44348" data-name="Path 44348" d="M392,328h4.553v2.276H392Z" transform="translate(-318.641 -242.072)" fill="#a8a8a8"/>
    <path id="Path_44349" data-name="Path 44349" d="M382.829,286.829h-4.553L376,283.415V280h11.382v3.415Z" transform="translate(-304.917 -200.701)" fill="#cbcbcb"/>
    <path id="Path_44350" data-name="Path 44350" d="M456,280h3.415v3.415H456Z" transform="translate(-373.535 -200.604)" fill="#ea9d2d"/>
    <path id="Path_44351" data-name="Path 44351" d="M384,400h3.415a1.138,1.138,0,0,1,0,2.276H384Z" transform="translate(-311.779 -304.319)" fill="#d18d28"/>
    <path id="Path_44352" data-name="Path 44352" d="M384,432h3.415a1.138,1.138,0,0,1,0,2.276H384Z" transform="translate(-311.779 -332.312)" fill="#d18d28"/>
    <path id="Path_44353" data-name="Path 44353" d="M255.935,357.626H240V336h18.211Z" transform="translate(-187.243 -249.97)" fill="#3a61a7"/>
    <circle id="Ellipse_6694" data-name="Ellipse 6694" cx="6.817" cy="6.817" r="6.817" transform="translate(45.652 93.706)" fill="#cbcbcb"/>
    <ellipse id="Ellipse_6695" data-name="Ellipse 6695" cx="2.622" cy="2.098" rx="2.622" ry="2.098" transform="translate(49.826 98.95)" fill="#a8a8a8"/>
    <path id="Path_44354" data-name="Path 44354" d="M192,232h6.829v4.553H192Z" transform="translate(-145.332 -159.124)" fill="#ea8249"/>
    <path id="Path_44355" data-name="Path 44355" d="M240,304h19.349v4.553H240Z" transform="translate(-187.292 -221.39)" fill="#284a88"/>
    <path id="Path_44356" data-name="Path 44356" d="M408,120.268l.315.21a7.868,7.868,0,0,1,3.1,4.058,7.868,7.868,0,0,1,3.1-4.058l.315-.21-.315-.21a7.868,7.868,0,0,1-3.1-4.058,7.868,7.868,0,0,1-3.1,4.058Z" transform="translate(-332.364 -58.842)" fill="#ea8249"/>
    <path id="Path_44357" data-name="Path 44357" d="M336,164.268l.315.21a7.868,7.868,0,0,1,3.1,4.058,7.868,7.868,0,0,1,3.1-4.058l.315-.21-.315-.21a7.868,7.868,0,0,1-3.1-4.058,7.868,7.868,0,0,1-3.1,4.058Z" transform="translate(-269.903 -96.915)" fill="#ea8249"/>
    <path id="Path_44358" data-name="Path 44358" d="M336,53.691l.42.28a10.49,10.49,0,0,1,4.133,5.411,10.49,10.49,0,0,1,4.133-5.411l.42-.28-.42-.28A10.49,10.49,0,0,1,340.553,48a10.49,10.49,0,0,1-4.133,5.411Z" transform="translate(-269.996 0)" fill="#ea8249"/>
    <g id="Group_16356" data-name="Group 16356" transform="translate(33.569 56.536)">
      <path id="Path_44359" data-name="Path 44359" d="M200,192h4.553v2.276H200Z" transform="translate(-185.203 -180.049)" fill="#026ca2"/>
      <path id="Path_44360" data-name="Path 44360" d="M201.654,162.276H197.1a5.1,5.1,0,0,0-.481-2.17A1.133,1.133,0,0,1,197.1,160h4.282A9.682,9.682,0,0,1,201.654,162.276Z" transform="translate(-182.304 -152.602)" fill="#026ca2"/>
      <path id="Path_44361" data-name="Path 44361" d="M102.414,127c-.125.1-.246.212-.361.327a5.111,5.111,0,0,0-1.5,3.622H96a9.681,9.681,0,0,1,.27-2.276h4.282a1.141,1.141,0,0,1,.329.048l-2.937-3.59a9.547,9.547,0,0,1,1.586-1.655Z" transform="translate(-96 -121.278)" fill="#026ca2"/>
      <path id="Path_44362" data-name="Path 44362" d="M154.276,108.017v4.568a4.7,4.7,0,0,0-.569-.033,5.1,5.1,0,0,0-1.707.292v-4.7a9.794,9.794,0,0,1,1.707-.149C153.9,108,154.089,108.006,154.276,108.017Z" transform="translate(-144.033 -108)" fill="#026ca2"/>
      <path id="Path_44363" data-name="Path 44363" d="M186.434,121.254l-2.944,3.6a5.14,5.14,0,0,0-1.68-1.541l2.905-3.55a9.626,9.626,0,0,1,1.4,1.161C186.225,121.029,186.331,121.14,186.434,121.254Z" transform="translate(-169.601 -118.087)" fill="#026ca2"/>
      <path id="Path_44364" data-name="Path 44364" d="M96,192h4.553v2.276H96Z" transform="translate(-96 -180.049)" fill="#026ca2"/>
      <path id="Path_44365" data-name="Path 44365" d="M96,224h4.553v2.276H96Z" transform="translate(-96 -207.496)" fill="#026ca2"/>
      <path id="Path_44366" data-name="Path 44366" d="M96,256h4.553v2.276H96Z" transform="translate(-96 -234.943)" fill="#026ca2"/>
    </g>
    <path id="Path_44367" data-name="Path 44367" d="M192,248h6.829v2.276H192Z" transform="translate(-145.332 -172.909)" fill="#961b20"/>
    <path id="Path_44368" data-name="Path 44368" d="M80,360h22.764v2.276H80Z" transform="translate(-48.033 -269.737)" fill="#284a88"/>
    <path id="Path_44369" data-name="Path 44369" d="M240,336h17.073v2.276H240Z" transform="translate(-187.196 -248.988)" fill="#026ca2"/>
    <path id="Path_44370" data-name="Path 44370" d="M288.219,296H272v5.691a2.276,2.276,0,0,0,4.553,0v7.4a1.707,1.707,0,0,0,3.415,0,1.707,1.707,0,1,0,3.415,0,1.707,1.707,0,1,0,3.415,0v-1.138a1.707,1.707,0,1,0,3.415,0v-9.959A1.992,1.992,0,0,0,288.219,296Z" transform="translate(-214.982 -214.839)" fill="#ea8249"/>
    <path id="Path_44371" data-name="Path 44371" d="M321.138,336v7.4A1.705,1.705,0,0,1,320,345.007V336Z" transform="translate(-255.867 -249.23)" fill="#dc651e"/>
    <path id="Path_44372" data-name="Path 44372" d="M297.138,320v2.276A2.275,2.275,0,0,1,296,324.248V320Z" transform="translate(-235.121 -235.217)" fill="#dc651e"/>
    <path id="Path_44373" data-name="Path 44373" d="M345.138,336v7.4A1.705,1.705,0,0,1,344,345.007V336Z" transform="translate(-276.613 -249.23)" fill="#dc651e"/>
    <path id="Path_44374" data-name="Path 44374" d="M369.138,336v7.4A1.7,1.7,0,0,1,368,345.007V336Z" transform="translate(-297.359 -249.23)" fill="#dc651e"/>
    <path id="Path_44375" data-name="Path 44375" d="M393.138,336v6.26A1.705,1.705,0,0,1,392,343.869V336Z" transform="translate(-318.641 -249.185)" fill="#dc651e"/>
  </g>
</svg>
