<svg id="client_satisfied" data-name="client satisfied" xmlns="http://www.w3.org/2000/svg" width="68.67" height="69.661" viewBox="0 0 68.67 69.661">
  <g id="Group_90517" data-name="Group 90517" transform="translate(0 0)">
    <path id="Path_55236" data-name="Path 55236" d="M0,102.429a.534.534,0,0,0,.133.013,8.612,8.612,0,0,1,6.716,1.918c.036.027.076.048.11.077a4.048,4.048,0,0,0,4.668.647c.2-.091.519.034.568-.347.044-.345-.194-.474-.4-.64a6.807,6.807,0,0,1-2.58-3.932c-.618-3.125-.858-6.271,1.134-9.059a7.561,7.561,0,0,1,6.572-3.259,7.874,7.874,0,0,1,6.628,4.506,11.949,11.949,0,0,1,.034,8.978,6.744,6.744,0,0,1-2.235,2.825.625.625,0,0,0-.3.619c.031.266.241.224.4.264q1.91.483,3.822.96a10.685,10.685,0,0,0-2.712,1.654c-1.016-.257-2.026-.538-3.049-.761-.513-.112-.757-.3-.7-.89a16.2,16.2,0,0,0,0-2.241.86.86,0,0,1,.494-.91,5.1,5.1,0,0,0,2.588-3.309,10.38,10.38,0,0,0-.155-5.692A5.558,5.558,0,0,0,16.645,90.1a5.543,5.543,0,0,0-5.313,3.99,12.486,12.486,0,0,0-.247,3.371,5.677,5.677,0,0,0,2.948,5.46.633.633,0,0,1,.357.645c-.017.883-.028,1.768,0,2.651.015.407-.139.527-.506.619a9.448,9.448,0,0,0-1.928.549c1.311.777,2.565,1.508,3.807,2.261.645.391,1.561.6,1.858,1.229a6.039,6.039,0,0,1,.064,2.314l3.368-.827c.392-.075.792-.124,1.176-.23a15.924,15.924,0,0,1,10.049.366,36.959,36.959,0,0,0,5.2,1.471c2.217.471,4.379,1.212,6.563,1.842a1.706,1.706,0,0,0,1.3,0c.769-.4,1.521-.835,2.279-1.255a1.7,1.7,0,0,0,.249-.088q5.736-3.059,11.468-6.126c.1-.056.28-.063.266-.284-1.606-.411-3.216-.839-4.835-1.225-.374-.089-.517-.217-.5-.619.03-.86.027-1.723,0-2.583a.72.72,0,0,1,.426-.743,5.209,5.209,0,0,0,2.679-3.48,10.987,10.987,0,0,0-.143-5.442,5.63,5.63,0,0,0-5.15-3.865,5.561,5.561,0,0,0-5.288,3.934,12.656,12.656,0,0,0-.265,3.438,5.683,5.683,0,0,0,2.957,5.457.625.625,0,0,1,.377.629c-.022.883-.029,1.768,0,2.651.014.407-.14.533-.511.618-1.086.248-2.161.546-3.241.824A10.534,10.534,0,0,0,43.389,106c1.211-.3,2.426-.585,3.63-.909.2-.054.523.043.592-.318s-.179-.517-.407-.7a6.992,6.992,0,0,1-2.534-3.814,12.964,12.964,0,0,1,.4-8.052,7.891,7.891,0,0,1,6.654-4.357,7.764,7.764,0,0,1,7.855,6.415c.516,3.034.537,6.066-1.548,8.664a6.972,6.972,0,0,1-1.3,1.269.563.563,0,0,0-.268.569c.037.3.289.239.464.285,1.529.407,3.1.71,4.579,1.247a1.977,1.977,0,0,0,2.015-.179c.347-.24.783-.352,1.115-.608a5.268,5.268,0,0,1,3.63-.806c.345.011.392.138.392.439q-.011,7.785.007,15.57c0,.423-.228.521-.51.664q-9.414,4.769-18.829,9.535a1.019,1.019,0,0,0-.666,1.008,3.254,3.254,0,0,1-2.709,3.017c-.439.067-.581.217-.641.662a3.247,3.247,0,0,1-2.768,2.733c-.367.047-.475.183-.538.522a3.308,3.308,0,0,1-2.871,2.88c-.161.028-.37-.049-.4.235a3.541,3.541,0,0,1-2.8,3.177H34.463a5.854,5.854,0,0,1-1.994-1.291.737.737,0,0,0-1.023-.175,3.364,3.364,0,0,1-4.763-2.51.65.65,0,0,0-.618-.622,3.3,3.3,0,0,1-2.725-2.87c-.056-.357-.216-.409-.51-.469A3.4,3.4,0,0,1,20,134.27c-.046-.258-.1-.374-.386-.427a3.38,3.38,0,0,1-2.948-2.975.669.669,0,0,0-.32-.539c-.905-.534-1.806-1.076-2.693-1.639-.3-.19-.457-.141-.484.2-.04.505-.354.495-.743.531a8.365,8.365,0,0,1-3.574-.7C5.9,127.7,2.95,126.7,0,125.693V102.429m66.344,4.746c-.216.1-.436.2-.648.314-6.325,3.379-12.657,6.746-18.964,10.159a3.876,3.876,0,0,1-2.487.5,8.74,8.74,0,0,1-1.169-.273q-2.86-.824-5.715-1.665a5.085,5.085,0,0,0-3.845.271q-2.995,1.5-5.968,3.037a1.692,1.692,0,0,0-.782,2.343,1.524,1.524,0,0,0,2.3.453c1.171-.7,2.334-1.415,3.5-2.123a4.468,4.468,0,0,1,5.985.571q4.386,4,8.761,8.01a.758.758,0,0,0,1.021.167q8.742-4.468,17.506-8.89a.917.917,0,0,0,.6-.964c-.022-3.74-.011-7.479-.016-11.219a1.107,1.107,0,0,0-.089-.692M31.9,114.783a12.319,12.319,0,0,0-6.155-1.02c-2.873.4-5.671,1.2-8.506,1.81a.516.516,0,0,0-.452.409Q15.4,120.939,14,125.891a.4.4,0,0,0,.218.543q1.385.822,2.748,1.682c.26.165.388.123.6-.106a28.768,28.768,0,0,1,2.241-2.241,3.375,3.375,0,0,1,5.554,2.01.654.654,0,0,0,.617.624,3.3,3.3,0,0,1,2.715,2.8.543.543,0,0,0,.523.541,3.357,3.357,0,0,1,2.824,2.942c.047.275.13.364.4.408a3.85,3.85,0,0,1,2.45,1.6A12.079,12.079,0,0,0,38,139.347a1.175,1.175,0,0,0,1.439-.109,1.116,1.116,0,0,0,.347-1.231,1.783,1.783,0,0,0-.67-.826q-2.11-1.785-4.218-3.572c-.411-.349-1.1-.666-1.15-1.067-.063-.472.636-.856.938-1.326.246-.382.439-.356.767-.074q2.682,2.309,5.4,4.576a1.4,1.4,0,0,0,2.038.018c.493-.59.345-1.245-.439-1.911-1.422-1.207-2.851-2.4-4.266-3.619-.4-.346-1.113-.634-1.109-1.076,0-.427.623-.829.921-1.277.282-.424.481-.337.817-.047,1.77,1.526,3.559,3.028,5.349,4.531a1.422,1.422,0,0,0,2.04.027c.493-.583.364-1.268-.375-1.943q-4.383-4-8.769-8a2.4,2.4,0,0,0-3.281-.345c-1.285.772-2.547,1.585-3.847,2.329a3.653,3.653,0,0,1-5.059-1.362,3.943,3.943,0,0,1,1.33-5.34c.537-.319,1.108-.579,1.664-.864,1.305-.667,2.612-1.332,4.027-2.054m-29.678-.45c0,3.061.012,6.122-.013,9.182a.7.7,0,0,0,.573.809q1.884.586,3.742,1.257c.386.141.485.037.573-.322q1.873-7.671,3.778-15.333a.587.587,0,0,0-.334-.788C8.586,108,6.645,106.846,4.7,105.7c-.462-.273-.919-.557-1.388-.818-.761-.423-1.091-.233-1.091.613q0,4.421,0,8.842M9.154,126.1c-.1.29.024.382.259.452a13.025,13.025,0,0,1,1.452.5c.4.173.52.037.627-.349q1.951-7.007,3.937-14a.627.627,0,0,0-.338-.872c-.554-.288-1.09-.616-1.616-.954-.364-.234-.516-.254-.638.262-.68,2.878-1.4,5.744-2.114,8.614L9.154,126.1M33.216,138.55a1.27,1.27,0,0,0-.7-1.122,1.141,1.141,0,0,0-1.36.2c-.65.616-1.287,1.249-1.9,1.9a1.286,1.286,0,0,0-.08,1.869,1.247,1.247,0,0,0,1.843-.1c.6-.575,1.168-1.178,1.749-1.77a1.586,1.586,0,0,0,.451-.979m-9.99-10.073a1.188,1.188,0,0,0-.711-1.172,1.141,1.141,0,0,0-1.358.239c-.633.6-1.246,1.225-1.848,1.859a1.284,1.284,0,0,0-.122,1.864,1.233,1.233,0,0,0,1.886-.1c.579-.561,1.138-1.143,1.7-1.721a1.3,1.3,0,0,0,.451-.965m6.668,6.732a1.225,1.225,0,0,0-.658-1.123,1.151,1.151,0,0,0-1.417.183c-.678.651-1.35,1.312-1.98,2.01a1.225,1.225,0,0,0,.021,1.763,1.239,1.239,0,0,0,1.747-.033c.651-.614,1.265-1.269,1.887-1.915a1.489,1.489,0,0,0,.4-.887m-4.589-4.638a.969.969,0,0,0-.58.16,14.188,14.188,0,0,0-2.383,2.444,1.1,1.1,0,0,0,.186,1.478,1.121,1.121,0,0,0,1.514.15,15.7,15.7,0,0,0,2.31-2.334,1.071,1.071,0,0,0,.072-1.215,1.17,1.17,0,0,0-1.12-.683m10,12.313a1.1,1.1,0,0,0,1.116-.67,1.158,1.158,0,0,0-.284-1.361c-.24-.234-.51-.436-.759-.662-.164-.149-.28-.189-.4.056a5.75,5.75,0,0,1-1.105,1.348c-.092.1-.331.2-.147.369.455.415.848.956,1.582.92" transform="translate(0 -75.486)" fill="#3a61a7"/>
    <path id="Path_55237" data-name="Path 55237" d="M149.888,12.363a7.788,7.788,0,0,0-6.57,4.357,11.2,11.2,0,0,0-2.686-3.495,11.615,11.615,0,0,0-8.032-3.1,11.106,11.106,0,0,0-6.133,1.82,11.421,11.421,0,0,0-4.405,4.922,7.775,7.775,0,0,0-6.545-4.506,20.363,20.363,0,0,0-.958-2.451.556.556,0,0,1,.13-.708q2.609-2.655,5.19-5.338c.27-.282.451-.231.724-.042.877.607,1.775,1.183,2.652,1.791a.59.59,0,0,0,.719.04,15.232,15.232,0,0,1,3.286-1.4.735.735,0,0,0,.549-.668c.208-1.04.454-2.072.634-3.117C128.508.08,128.664,0,129,0q3.7.016,7.41,0c.347,0,.492.092.558.472.181,1.044.431,2.076.631,3.117a.778.778,0,0,0,.62.684,14.435,14.435,0,0,1,3.163,1.352.674.674,0,0,0,.834-.052c.837-.587,1.7-1.128,2.54-1.717.32-.226.521-.261.826.059q2.523,2.646,5.1,5.24a.638.638,0,0,1,.147.824,17.818,17.818,0,0,0-.945,2.384" transform="translate(-98.378 0)" fill="#f3a416"/>
    <path id="Path_55238" data-name="Path 55238" d="M153.168,107.53a10.876,10.876,0,0,1,2.751-1.655,1.443,1.443,0,0,0,.728-.051c1.14-.28,2.279-.563,3.411-.87.2-.056.531.027.565-.358.027-.305-.163-.435-.363-.6a7.587,7.587,0,0,1-2.858-4.714,15.191,15.191,0,0,1-.053-4.8,7.776,7.776,0,0,1,14.587-2.612c1.328,2.422,1.257,5.013.83,7.607a7.282,7.282,0,0,1-2.853,4.561.614.614,0,0,0-.311.554c.021.347.3.289.5.34q1.768.462,3.544.9a3.724,3.724,0,0,0,.661.043,10.725,10.725,0,0,1,2.752,1.654,6.078,6.078,0,0,1,1.5,3.393c.058,1.168.03,2.34.04,3.511-.77.42-1.532.855-2.313,1.255a1.753,1.753,0,0,1-1.32,0c-2.216-.629-4.409-1.371-6.658-1.842a37.9,37.9,0,0,1-5.271-1.471,16.377,16.377,0,0,0-10.2-.366c-.39.106-.8.155-1.193.23a6.272,6.272,0,0,1,1.523-4.71" transform="translate(-130.783 -75.362)" fill="#77b81b"/>
  </g>
</svg>
