<svg id="conditioning" xmlns="http://www.w3.org/2000/svg" width="60.352" height="48.462" viewBox="0 0 60.352 48.462">
  <g id="Group_17427" data-name="Group 17427" transform="translate(0 0)">
    <g id="air-conditioner_1_" data-name="air-conditioner (1)">
      <path id="Path_44223" data-name="Path 44223" d="M60.352,69.375V81.949a4.585,4.585,0,0,1-4.572,4.572H4.572A4.585,4.585,0,0,1,0,81.949V69.375A4.585,4.585,0,0,1,4.572,64.8H55.78A4.585,4.585,0,0,1,60.352,69.375Z" transform="translate(0 -64.804)" fill="#3a61a7"/>
      <path id="Path_44224" data-name="Path 44224" d="M88.342,69.375V81.949a4.585,4.585,0,0,1-4.572,4.572H36.3a4.585,4.585,0,0,1-4.572-4.572V69.375A4.585,4.585,0,0,1,36.3,64.8H83.77A4.585,4.585,0,0,1,88.342,69.375Z" transform="translate(-27.991 -64.804)" fill="#3a61a7"/>
      <path id="Path_44225" data-name="Path 44225" d="M60.352,196.684v1.6c0,.154-.007.306-.022.456a4.59,4.59,0,0,1-4.55,4.116H4.572a4.59,4.59,0,0,1-4.55-4.116c-.015-.15-.022-.3-.022-.456v-1.6Z" transform="translate(0 -179.785)" fill="#3a61a7"/>
      <path id="Path_44226" data-name="Path 44226" d="M432.2,153.329a1.257,1.257,0,1,1-1.257-1.257,1.245,1.245,0,0,1,.611.159A1.258,1.258,0,0,1,432.2,153.329Z" transform="translate(-379.039 -140.967)" fill="#6dc82a"/>
      <path id="Path_44227" data-name="Path 44227" d="M473.306,153.329a1.257,1.257,0,1,1-1.257-1.257,1.243,1.243,0,0,1,.61.159A1.256,1.256,0,0,1,473.306,153.329Z" transform="translate(-415.297 -140.967)" fill="#ff0c38"/>
      <path id="Path_44228" data-name="Path 44228" d="M441.329,154.516a.74.74,0,1,1-.646-1.1A1.258,1.258,0,0,1,441.329,154.516Z" transform="translate(-388.165 -142.146)" fill="#fff"/>
      <path id="Path_44229" data-name="Path 44229" d="M482.432,154.516a.74.74,0,1,1-.648-1.1A1.257,1.257,0,0,1,482.432,154.516Z" transform="translate(-424.423 -142.146)" fill="#ff3f62"/>
      <g id="Group_16325" data-name="Group 16325" transform="translate(12.311 28.731)">
        <path id="Path_44230" data-name="Path 44230" d="M405.429,311.15l-3.2-1.991,3.2-1.991a.915.915,0,0,0-.965-1.554l-3.057,1.9v-3.6a.915.915,0,1,0-1.829,0v3.6l-3.057-1.9a.915.915,0,0,0-.965,1.554l3.2,1.991-3.2,1.991a.915.915,0,1,0,.966,1.554l3.057-1.9v3.6a.915.915,0,0,0,1.829,0v-3.6l3.057,1.9a.915.915,0,1,0,.965-1.554Z" transform="translate(-360.858 -300.265)" fill="#284a88"/>
        <path id="Path_44231" data-name="Path 44231" d="M115.04,282.716a.915.915,0,0,0-1.26-.294l-3.057,1.9v-3.6a.915.915,0,1,0-1.829,0v3.6l-3.057-1.9a.915.915,0,0,0-.965,1.554l3.2,1.991-3.2,1.991a.915.915,0,1,0,.966,1.554l3.057-1.9v3.6a.915.915,0,1,0,1.829,0v-3.6l3.057,1.9a.915.915,0,0,0,.966-1.554l-3.2-1.991,3.2-1.991A.915.915,0,0,0,115.04,282.716Z" transform="translate(-104.439 -279.808)" fill="#284a88"/>
      </g>
      <path id="Path_44232" data-name="Path 44232" d="M236.193,379.668a.915.915,0,0,0-1.26-.294l-1.3.81V378.65a.915.915,0,1,0-1.829,0v1.534l-1.3-.81a.915.915,0,0,0-.966,1.554l1.45.9-1.45.9a.915.915,0,1,0,.966,1.554l1.3-.81v1.534a.915.915,0,0,0,1.829,0v-1.534l1.3.81a.915.915,0,0,0,.966-1.554l-1.45-.9,1.45-.9A.915.915,0,0,0,236.193,379.668Z" transform="translate(-202.095 -337.461)" fill="#ea8249"/>
      <g id="Group_16326" data-name="Group 16326" transform="translate(3.273 28.915)">
        <path id="Path_44233" data-name="Path 44233" d="M31.57,326.928a1.9,1.9,0,1,1-.741-1.507A1.9,1.9,0,0,1,31.57,326.928Z" transform="translate(-27.769 -320.849)" fill="#ea8249"/>
        <path id="Path_44234" data-name="Path 44234" d="M310.684,291.483a1.9,1.9,0,1,1-.743-1.507A1.9,1.9,0,0,1,310.684,291.483Z" transform="translate(-273.981 -289.582)" fill="#ea8249"/>
      </g>
      <g id="Group_16327" data-name="Group 16327" transform="translate(5.59 29.294)">
        <path id="Path_44235" data-name="Path 44235" d="M48.91,329.874a1.9,1.9,0,0,1-.741,1.507,1.9,1.9,0,0,1,0-3.015A1.9,1.9,0,0,1,48.91,329.874Z" transform="translate(-47.426 -324.189)" fill="#f39c12"/>
        <path id="Path_44236" data-name="Path 44236" d="M328.023,294.429a.937.937,0,1,1-.743-1.507A1.9,1.9,0,0,1,328.023,294.429Z" transform="translate(-293.638 -292.922)" fill="#f39c12"/>
      </g>
      <path id="Path_44237" data-name="Path 44237" d="M233.025,101.517a.915.915,0,0,1-.915.915h-5.467a.915.915,0,1,1,0-1.829h5.467A.915.915,0,0,1,233.025,101.517Z" transform="translate(-199.121 -96.382)" fill="#fff" stroke="#fff" stroke-width="2"/>
      <path id="Path_44238" data-name="Path 44238" d="M259.491,101.517a.915.915,0,0,1-.915.915h-1.931a.915.915,0,0,1,0-1.829h1.931A.915.915,0,0,1,259.491,101.517Z" transform="translate(-225.587 -96.382)" fill="gray"/>
      <g id="Group_16328" data-name="Group 16328" transform="translate(0.022 18.98)">
        <path id="Path_44240" data-name="Path 44240" d="M20.676,215.042a.914.914,0,0,1-.915.915H.781a4.539,4.539,0,0,1-.6-1.829H19.762A.915.915,0,0,1,20.676,215.042Z" transform="translate(-0.186 -214.127)" fill="#fff"/>
        <path id="Path_44241" data-name="Path 44241" d="M227.526,214.127a4.54,4.54,0,0,1-.6,1.829H190.453a.915.915,0,1,1,0-1.829h37.074Z" transform="translate(-167.218 -214.127)" fill="#fff"/>
      </g>
    </g>
  </g>
</svg>
