<svg xmlns="http://www.w3.org/2000/svg" width="39.049" height="60.586" viewBox="0 0 39.049 60.586">
  <g id="electricity" transform="translate(-91)">
    <g id="Group_16350" data-name="Group 16350" transform="translate(108.75 42.836)">
      <path id="Path_44328" data-name="Path 44328" d="M256.975,379.75A15.993,15.993,0,0,1,241,363.775a1.775,1.775,0,0,1,3.55,0A12.439,12.439,0,0,0,256.975,376.2a1.775,1.775,0,1,1,0,3.55Z" transform="translate(-241 -362)" fill="#6e6e6e"/>
    </g>
    <g id="Group_16351" data-name="Group 16351" transform="translate(98.1)">
      <path id="Path_44329" data-name="Path 44329" d="M152.775,14.436A1.775,1.775,0,0,1,151,12.661V1.775a1.775,1.775,0,1,1,3.55,0V12.661A1.775,1.775,0,0,1,152.775,14.436Z" transform="translate(-151)" fill="#a1aebc"/>
    </g>
    <g id="Group_16352" data-name="Group 16352" transform="translate(119.399)">
      <path id="Path_44330" data-name="Path 44330" d="M332.775,14.436A1.775,1.775,0,0,1,331,12.661V1.775a1.775,1.775,0,1,1,3.55,0V12.661A1.775,1.775,0,0,1,332.775,14.436Z" transform="translate(-331)" fill="#a1aebc"/>
    </g>
    <g id="Group_16353" data-name="Group 16353" transform="translate(91 10.886)">
      <path id="Path_44331" data-name="Path 44331" d="M128.274,92h-35.5A1.776,1.776,0,0,0,91,93.775v7.1a1.776,1.776,0,0,0,1.775,1.775H94.55v8.875a15.975,15.975,0,1,0,31.949,0V102.65h1.775a1.776,1.776,0,0,0,1.775-1.775v-7.1A1.776,1.776,0,0,0,128.274,92Z" transform="translate(-91 -92)" fill="#3a61a7"/>
    </g>
    <path id="Path_44332" data-name="Path 44332" d="M275.525,93.775v7.1a1.776,1.776,0,0,1-1.775,1.775h-1.775v8.875A15.993,15.993,0,0,1,256,127.5V92h17.75A1.776,1.776,0,0,1,275.525,93.775Z" transform="translate(-145.475 -81.114)" fill="#284a88"/>
    <g id="Group_16354" data-name="Group 16354" transform="translate(105.2 21.512)">
      <path id="Path_44333" data-name="Path 44333" d="M221.134,191.951l-3.55,3.55a1.693,1.693,0,0,1-1.255.538,1.794,1.794,0,0,1-1.256-3.049l1.256-1.254.554-.554-.554-.277-4.344-2.171a1.777,1.777,0,0,1-.461-2.844l3.55-3.55a1.7,1.7,0,0,1,1.256-.543,1.8,1.8,0,0,1,1.255,3.054l-1.255,1.254-.554.554.554.277,4.344,2.171A1.777,1.777,0,0,1,221.134,191.951Z" transform="translate(-211.004 -181.797)" fill="#ea8249"/>
    </g>
    <g id="Group_16355" data-name="Group 16355" transform="translate(110.525 21.513)">
      <path id="Path_44334" data-name="Path 44334" d="M257.255,184.854,256,186.108V181.8A1.8,1.8,0,0,1,257.255,184.854Z" transform="translate(-256 -181.8)" fill="#f69762"/>
      <path id="Path_44335" data-name="Path 44335" d="M260.805,230.245l-3.55,3.55a1.693,1.693,0,0,1-1.255.538v-4.3l.554-.554L256,229.2V225.23l4.344,2.171A1.778,1.778,0,0,1,260.805,230.245Z" transform="translate(-256 -220.091)" fill="#f69762"/>
    </g>
  </g>
</svg>
