<svg xmlns="http://www.w3.org/2000/svg" width="68.608" height="68.522" viewBox="0 0 68.608 68.522">
  <g id="finishing_companies" data-name="finishing companies" transform="translate(0)">
    <g id="Group_90515" data-name="Group 90515">
      <path id="Path_55262" data-name="Path 55262" d="M65.148,38.828c1.029-.166,1.183.326,1.165,1.263-.065,3.489-.005,6.979-.043,10.469-.008.694.133.964.869.885.451-.048,1.182-.241,1.331.109a4.7,4.7,0,0,1,.093,1.865c-.012.483-.419.28-.652.283-1.459.019-2.919.028-4.378,0a1.592,1.592,0,0,0-1.5.791,34.663,34.663,0,0,1-6.758,6.947A32.883,32.883,0,0,1,47.6,65.919a33.245,33.245,0,0,1-10.277,2.495,39.9,39.9,0,0,1-8.336-.243,30.886,30.886,0,0,1-7.773-2.151A34.4,34.4,0,0,1,8.948,57.337a24.287,24.287,0,0,1-2.42-3.017,1.274,1.274,0,0,0-1.222-.627c-1.521.053-3.046-.014-4.567.034-.6.019-.816-.155-.714-.735a1.672,1.672,0,0,0,0-.285c0-1.28,0-1.343,1.29-1.258.857.057,1.045-.21,1.016-1.03-.067-1.9.036-3.809-.041-5.709a2.489,2.489,0,0,1,1.515-2.78A35.441,35.441,0,0,0,8.085,39.29a1.944,1.944,0,0,1,2.344.111c1.061.678,2.147,1.316,3.307,2.023,0-1.558.012-3.011-.006-4.463a1.624,1.624,0,0,1,.562-1.346q3.824-3.289,7.647-6.58A1.266,1.266,0,0,1,23.8,29c1.939,1.68,3.894,3.341,5.932,5.086,0-2.065.023-4.048-.012-6.03a2.263,2.263,0,0,1,.713-1.774q4.224-4.188,8.413-8.412a2.233,2.233,0,0,1,1.767-.731c1.395.042,2.793-.024,4.187.027.7.026.979-.109.949-.9-.069-1.806-.024-3.616-.021-5.424,0-1.252.385-1.681,1.613-1.672.534,0,.72-.127.682-.675-.048-.694-.012-1.4-.011-2.093,0-1.461.366-1.816,1.865-1.817,1.428,0,2.857-.035,4.282.016.609.022.745-.168.72-.741-.047-1.077.016-2.158-.026-3.235-.02-.52.165-.616.643-.622,1.655-.021,1.655-.04,1.655,1.6,0,.793.035,1.588-.012,2.379-.031.526.171.625.645.618,1.586-.026,3.172-.017,4.759-.007,1.007.006,1.435.418,1.458,1.417.021.856.026,1.714,0,2.569-.016.44.094.585.568.6,1.484.035,1.726.316,1.726,1.807,0,8.122-.018,16.244.025,24.365,0,.934-.135,1.428-1.164,1.262-1.03.164-1.175-.33-1.17-1.266.044-7.642.013-15.284.043-22.927,0-.765-.142-1-.961-.994q-7.039.068-14.079,0c-.766-.006-1,.143-.994.961.037,7.166.022,14.333.022,21.5,0,5.549.018,11.1-.02,16.648-.005.775.23.933.945.911,1.679-.051,3.363-.065,5.041.005.792.033.958-.25.9-.953s-.012-1.394-.012-2.092c0-1.588,0-1.564,1.6-1.56.524,0,.715.123.693.677-.043,1.076.016,2.157-.024,3.234-.02.538.143.7.683.685,1.807-.032,3.615-.041,5.422,0,.633.016.781-.176.776-.788-.029-3.52.024-7.04-.04-10.559-.017-.938.141-1.431,1.171-1.267m-19.424-3.46c0-4.979-.015-9.959.017-14.938,0-.741-.1-1.076-.95-1.013a30.552,30.552,0,0,1-3.518.006,1.637,1.637,0,0,0-1.305.523q-3.742,3.733-7.469,7.481a1.621,1.621,0,0,0-.5,1.217q.041,10.99.008,21.979c0,.569.071.848.752.82,1.425-.057,2.854-.038,4.281-.007.52.012.734-.116.7-.675-.046-.79-.012-1.585-.012-2.378,0-1.556,0-1.515,1.538-1.546.668-.013.78.235.758.816-.04,1.045.013,2.094-.022,3.139-.017.5.129.656.636.644,1.427-.033,2.856-.051,4.281.006.692.028.824-.206.82-.851-.027-5.075-.015-10.149-.015-15.224m-29.7,8.789c0,2.188.013,4.376-.01,6.564-.005.493.059.736.649.719,1.489-.044,2.981-.039,4.471,0,.535.013.63-.192.611-.66-.032-.791-.009-1.585-.009-2.378,0-1.587,0-1.563,1.605-1.559.526,0,.713.127.692.678-.042,1.108.008,2.22-.022,3.329-.013.458.13.594.586.586,1.49-.026,2.981-.034,4.471,0,.55.014.678-.166.676-.692q-.03-6.516,0-13.033a1.207,1.207,0,0,0-.493-1.034c-2.025-1.719-4.027-3.465-6.032-5.207-.205-.178-.279-.28-.582-.012-1.937,1.71-3.919,3.37-5.9,5.036A1.792,1.792,0,0,0,16,38.07c.071,2.027.025,4.058.025,6.088m5.723,9.584a47.092,47.092,0,0,0,2.623,4.506,2.123,2.123,0,0,0,2.045,1.2c4.878-.066,9.759-.107,14.635.013,1.694.042,2.9-.24,3.7-1.875.629-1.294,1.535-2.451,2.129-3.849Zm-8.008-6.052q0-1.521,0-3.041c0-.318.011-.626-.324-.822q-1.842-1.076-3.675-2.17a1.028,1.028,0,0,0-1.157.021A24.094,24.094,0,0,0,5.9,43.338c-.441.359-1.3.323-1.3,1.182,0,2.122.01,4.244-.006,6.367,0,.405.111.563.535.547.791-.029,1.584-.029,2.375,0,.428.016.54-.149.532-.55C8.009,49.87,8.1,48.85,8,47.845c-.084-.893.262-1.046,1.053-1.006,1.251.064,1.254.016,1.254,1.254,0,.222-.014.445,0,.665.066.872-.4,2.067.19,2.529.553.435,1.7.092,2.577.15.568.037.686-.193.668-.706-.035-1.012-.01-2.027-.01-3.04m-4.848,6.02a31.1,31.1,0,0,0,5.05,5.248,1.566,1.566,0,0,0,.991.465c2.428,0,4.857,0,7.541,0-.377-.224-.3-.453-.4-.594a20.854,20.854,0,0,1-2.345-4.1,1.423,1.423,0,0,0-1.694-1.03,10.59,10.59,0,0,1-1.71.017Zm37.425,5.712c2.5,0,4.9,0,7.31,0a1.491,1.491,0,0,0,1.022-.376,35.862,35.862,0,0,0,5.024-5.234c-.079-.045-.128-.1-.176-.1-3.139,0-6.277.007-9.416-.02a.976.976,0,0,0-.967.729,55.858,55.858,0,0,1-2.8,5m-19.3,2.314c.673.741,1.244,1.289,1.722,1.91A6.612,6.612,0,0,0,35.182,66.3a4.786,4.786,0,0,0,3.391-1.346c.958-1.069,2.074-2,2.993-3.216ZM56.083,9.156h4.277c1.364,0,1.325,0,1.374-1.409.024-.687-.125-.908-.865-.9-3.009.049-6.019.02-9.029.02-1.588,0-1.547,0-1.567,1.6-.008.646.245.7.772.7,1.679-.028,3.358-.01,5.037-.01M50.835,61.708a34.547,34.547,0,0,1-3.869-.027,3.339,3.339,0,0,0-3.8,1.785c-.056.108-.182.177-.252.279-.416.612-1.11.993-1.527,1.805a34,34,0,0,0,9.449-3.843M27.267,65.371a15.136,15.136,0,0,1-2.125-2.322,2.744,2.744,0,0,0-2.967-1.361c-1.13.1-2.276.01-3.414.03-.21,0-.511-.17-.641.182a29.124,29.124,0,0,0,9.148,3.472" transform="translate(0 0)" fill="#3a61a7"/>
      <path id="Path_55264" data-name="Path 55264" d="M12.294,18.436c-.525-.5-.841-.847-.027-1.533,1.744-1.469,3.338-3.116,5-4.683.9-.849,1.245-.882,2.191-.1,1.7,1.4,3.361,2.839,5.059,4.238.321.265.666.551,1.125.032Q29.413,12.11,33.257,7.9c.554-.6.512-.866-.216-1.2a8,8,0,0,1-1.371-.963c-1.011-.764-.949-1.691.223-2.118,1.467-.535,2.982-.938,4.481-1.382,1.556-.461,3.14-.84,4.668-1.378C41.785.592,42.56.484,43.3.2s1.435.439,1.356,1.326q-.269,3.025-.611,6.043c-.183,1.634-.166,3.286-.473,4.911-.258,1.365-.963,1.706-2.145.962a6.976,6.976,0,0,1-.633-.39c-.531-.42-1.106-1.117-1.691-.991-.525.112-.907.89-1.353,1.372L26.269,25.825c-.654.706-1.162.775-1.9.175q-2.8-2.29-5.569-4.623c-.247-.209-.267-.363-.613-.038q-7.558,7.093-15.17,14.13c-.288.268-.522.6-.828.839a1.2,1.2,0,0,1-1.278.284,1.1,1.1,0,0,1-.785-1.051c-.024-2.252-.016-4.5-.007-6.755a1.776,1.776,0,0,1,.752-1.265c2.636-2.46,5.29-4.9,7.887-7.4.646-.622,1.108-.806,1.66.008.227.471,1.046.773.24,1.494C8.07,23.94,5.517,26.305,2.975,28.682c-.217.2-.576.367-.573.778.01,1.118,0,2.236,0,3.509L17.159,19.183c1.081-1.011,1.313-1.032,2.478-.066,1.648,1.367,3.264,2.771,4.916,4.133.291.239.623.519,1.059.042,3.833-4.192,7.7-8.354,11.533-12.545,1.683-1.84,1.759-1.9,3.51-.537.092.072.264.057.335.137.572.646.61.056.605-.3a48.476,48.476,0,0,1,.586-5.858c.133-1.251.1-1.254-1.133-.89-.119.035-.251.03-.37.066-1.9.574-3.829,1.046-5.714,1.777a2.94,2.94,0,0,0,.794.574,1.4,1.4,0,0,1,.58,2.186q-5,5.511-10.021,11c-.739.81-1.2.849-2.04.154-1.844-1.518-3.688-3.036-5.5-4.593-.329-.283-.358-.184-.619.067-1.412,1.361-2.913,2.63-4.293,4.021-.681.686-1.1.553-1.574-.125" transform="translate(-0.093 -0.115)" fill="none"/>
      <path id="Path_55265" data-name="Path 55265" d="M21.989,30.951c.475.678.893.811,1.574.125,1.38-1.391,2.881-2.66,4.293-4.021.26-.251.29-.35.619-.067,1.811,1.557,3.655,3.075,5.5,4.593.843.694,1.3.656,2.04-.154q5.017-5.5,10.021-11a1.4,1.4,0,0,0-.58-2.186,2.94,2.94,0,0,1-.794-.574c1.885-.731,3.816-1.2,5.714-1.777.119-.036.251-.031.37-.066,1.229-.363,1.265-.361,1.133.89a48.476,48.476,0,0,0-.586,5.858c.005.352-.033.942-.605.3-.072-.081-.243-.065-.335-.137-1.751-1.366-1.827-1.3-3.51.537-3.834,4.191-7.7,8.352-11.533,12.545-.436.477-.769.2-1.059-.042C32.6,34.4,30.98,33,29.332,31.632c-1.165-.967-1.4-.945-2.478.066L12.1,45.484c0-1.273.007-2.391,0-3.509,0-.411.356-.575.573-.778,2.542-2.377,5.095-4.742,7.689-7.061.806-.721-.013-1.023-.24-1.494l1.87-1.691" transform="translate(-9.788 -12.63)" fill="#f3a416"/>
      <path id="Path_55268" data-name="Path 55268" d="M46.554,281.158h7.434a10.612,10.612,0,0,0,1.71-.017,1.423,1.423,0,0,1,1.694,1.029,20.852,20.852,0,0,0,2.345,4.105c.1.141.023.37.4.594-2.685,0-5.113,0-7.541,0a1.565,1.565,0,0,1-.991-.465,31.1,31.1,0,0,1-5.05-5.248" transform="translate(-37.667 -227.447)" fill="#77b81b"/>
      <path id="Path_55269" data-name="Path 55269" d="M242.6,287.015a55.858,55.858,0,0,0,2.8-5,.977.977,0,0,1,.967-.729c3.139.027,6.277.015,9.416.02.048,0,.1.051.176.1a35.86,35.86,0,0,1-5.024,5.234,1.491,1.491,0,0,1-1.022.376c-2.405,0-4.811,0-7.31,0" transform="translate(-196.288 -227.592)" fill="#77b81b"/>
      <path id="Path_55272" data-name="Path 55272" d="M226.242,322.927a34,34,0,0,1-9.449,3.843c.417-.812,1.111-1.194,1.527-1.806.07-.1.2-.172.252-.279a3.339,3.339,0,0,1,3.8-1.785,34.5,34.5,0,0,0,3.869.027" transform="translate(-175.407 -261.219)" fill="#77b81b"/>
      <path id="Path_55273" data-name="Path 55273" d="M104.059,326.728a29.123,29.123,0,0,1-9.148-3.472c.131-.351.431-.178.641-.182,1.138-.02,2.283.066,3.414-.03a2.744,2.744,0,0,1,2.967,1.361,15.135,15.135,0,0,0,2.125,2.322" transform="translate(-76.792 -261.357)" fill="#77b81b"/>
      <path id="Path_55274" data-name="Path 55274" d="M263.454,80.543V79.024c0-1.251,0-1.194,1.228-1.27.854-.053,1.133.185,1.078,1.065-.082,1.324-.044,2.657-.01,3.986.014.522-.119.694-.671.7-1.625.006-1.625.033-1.625-1.629Z" transform="translate(-213.161 -62.905)" fill="#3a61a7"/>
      <path id="Path_55275" data-name="Path 55275" d="M289.6,80.732c0,.728-.033,1.458.011,2.183.031.513-.153.623-.64.63-1.656.024-1.656.046-1.656-1.6,0-1.139.037-2.28-.015-3.417-.028-.6.164-.733.739-.727,1.56.017,1.561-.012,1.561,1.5v1.424" transform="translate(-232.453 -62.951)" fill="#3a61a7"/>
      <path id="Path_55276" data-name="Path 55276" d="M313.483,80.69v1.519c0,1.31,0,1.259-1.265,1.327-.8.043-1.1-.128-1.043-1.006.09-1.323.048-2.657.012-3.985-.015-.549.084-.766.708-.758,1.588.021,1.588-.017,1.588,1.574Z" transform="translate(-251.765 -62.937)" fill="#3a61a7"/>
      <path id="Path_55277" data-name="Path 55277" d="M313.59,164.266V165.6c0,1.418-.557,1.809-1.988,1.452-.322-.08-.3-.264-.3-.479,0-1.582.007-3.165-.007-4.747,0-.352.091-.474.47-.507,1.822-.162,1.82-.177,1.82,1.622Z" transform="translate(-251.872 -130.465)" fill="#3a61a7"/>
      <path id="Path_55278" data-name="Path 55278" d="M265.663,164.514c0,.728-.033,1.458.011,2.183.031.513-.153.623-.64.63-1.656.024-1.656.045-1.656-1.6,0-1.139.037-2.28-.015-3.417-.028-.6.164-.733.739-.727,1.56.017,1.561-.012,1.561,1.5v1.424" transform="translate(-213.085 -130.739)" fill="#3a61a7"/>
      <path id="Path_55279" data-name="Path 55279" d="M263.454,206.013v-1.139c0-1.8,0-1.783,1.807-1.634.365.03.487.126.484.493q-.023,2.373,0,4.747c0,.366-.116.464-.482.495-1.81.151-1.809.165-1.809-1.633Z" transform="translate(-213.161 -164.392)" fill="#3a61a7"/>
      <path id="Path_55280" data-name="Path 55280" d="M287.391,206.1V204.87c0-1.8,0-1.783,1.809-1.633.366.031.486.129.482.495q-.023,2.373,0,4.747c0,.367-.119.463-.484.493-1.808.149-1.807.163-1.807-1.634Z" transform="translate(-232.528 -164.389)" fill="#3a61a7"/>
      <path id="Path_55281" data-name="Path 55281" d="M313.567,206.408c0,.7-.047,1.4.014,2.087.055.625-.2.718-.751.713-1.548-.014-1.548.012-1.548-1.515,0-1.171.021-2.342-.01-3.512-.013-.5.073-.713.652-.715,1.643-.007,1.643-.038,1.643,1.613Z" transform="translate(-251.849 -164.623)" fill="#3a61a7"/>
      <path id="Path_55282" data-name="Path 55282" d="M313.587,122.411v1.139c0,1.8,0,1.783-1.806,1.635-.363-.03-.489-.123-.485-.492q.023-2.373,0-4.746c0-.364.113-.465.481-.5,1.811-.152,1.81-.166,1.81,1.631Z" transform="translate(-251.869 -96.597)" fill="#3a61a7"/>
      <path id="Path_55283" data-name="Path 55283" d="M289.6,122.614c0,.728-.03,1.457.01,2.183.028.5-.141.628-.634.636-1.662.025-1.661.047-1.661-1.592,0-1.139.036-2.28-.014-3.417-.026-.593.149-.74.734-.733,1.565.018,1.566-.013,1.566,1.594v1.329" transform="translate(-232.456 -96.842)" fill="#3a61a7"/>
      <path id="Path_55284" data-name="Path 55284" d="M265.679,122.585c0,.7-.034,1.395.011,2.088.036.555-.09.763-.711.755-1.585-.021-1.585.016-1.585-1.577,0-1.139.028-2.279-.012-3.417-.02-.554.091-.763.711-.755,1.585.021,1.585-.016,1.585,1.577v1.329" transform="translate(-213.101 -96.832)" fill="#3a61a7"/>
      <path id="Path_55285" data-name="Path 55285" d="M289.552,164.386a12.372,12.372,0,0,0,.016,1.8c.147.991-.258,1.15-1.173,1.176-1,.029-1.206-.289-1.149-1.206.081-1.292.048-2.595.007-3.891-.018-.558.179-.669.7-.671,1.6,0,1.6-.027,1.6,1.555Z" transform="translate(-232.404 -130.747)" fill="#3a61a7"/>
      <path id="Path_55286" data-name="Path 55286" d="M181.923,206.238v1.42c0,1.411-.581,1.82-1.985,1.454-.384-.1-.294-.35-.3-.577-.008-1.515.009-3.03-.012-4.545-.006-.431.1-.59.569-.61,1.725-.074,1.724-.1,1.724,1.627Z" transform="translate(-145.338 -164.535)" fill="#3a61a7"/>
      <path id="Path_55287" data-name="Path 55287" d="M217.841,206.171V207.4c0,1.611-.262,1.808-1.9,1.541-.357-.058-.384-.226-.384-.5,0-1.578.01-3.156,0-4.734,0-.362.12-.466.484-.5,1.807-.165,1.806-.178,1.806,1.636Z" transform="translate(-174.402 -164.36)" fill="#3a61a7"/>
      <path id="Path_55288" data-name="Path 55288" d="M215.391,164.329a11.822,11.822,0,0,0-.015-1.7c-.144-.977.24-1.163,1.169-1.183.995-.022,1.209.289,1.151,1.207-.081,1.289-.046,2.588-.008,3.881.016.548-.17.676-.693.679-1.6.01-1.6.034-1.6-1.556Z" transform="translate(-174.237 -130.623)" fill="#3a61a7"/>
      <path id="Path_55289" data-name="Path 55289" d="M179.672,163.964v-1.231c0-1.611.262-1.808,1.9-1.541.357.058.384.226.384.5,0,1.578-.01,3.156,0,4.734,0,.362-.12.466-.484.5-1.807.165-1.806.178-1.806-1.636Z" transform="translate(-145.373 -130.341)" fill="#3a61a7"/>
      <path id="Path_55290" data-name="Path 55290" d="M215.524,122.489c0-.726.03-1.454-.01-2.177-.028-.5.142-.631.637-.64,1.659-.031,1.658-.054,1.658,1.6,0,1.136-.034,2.274.014,3.408.025.589-.151.742-.735.736-1.563-.014-1.563.017-1.563-1.5v-1.42" transform="translate(-174.37 -96.82)" fill="#3a61a7"/>
      <path id="Path_55291" data-name="Path 55291" d="M95.638,206.135c0-.475-.035-.953.01-1.423.043-.448-.279-1.126.182-1.3a5.121,5.121,0,0,1,1.88-.043c.264.01.211.267.211.443,0,1.582,0,3.164.008,4.747,0,.343-.074.48-.462.515-1.829.169-1.828.186-1.828-1.615Z" transform="translate(-77.332 -164.494)" fill="#3a61a7"/>
      <path id="Path_55292" data-name="Path 55292" d="M131.8,206.1v-1.234c0-1.8,0-1.783,1.809-1.632.367.031.485.131.482.5q-.023,2.373,0,4.747c0,.368-.121.463-.485.493-1.808.149-1.806.163-1.806-1.634Z" transform="translate(-106.637 -164.387)" fill="#3a61a7"/>
    </g>
  </g>
</svg>
