<svg id="fulfilled_orders" data-name="fulfilled orders" xmlns="http://www.w3.org/2000/svg" width="68.712" height="68.736" viewBox="0 0 68.712 68.736">
  <g id="Group_90516" data-name="Group 90516">
    <path id="Path_55239" data-name="Path 55239" d="M68.76,159.149a35.693,35.693,0,0,1-8.575,11.106A38.738,38.738,0,0,1,.48,160.089a2.828,2.828,0,0,1,1.349-4.139.658.658,0,0,0,.45-.744c-.01-3.824.018-7.648-.018-11.471a3.168,3.168,0,0,1,1.973-3.317c.3-.125.248-.322.248-.531,0-1.208.023-2.416-.01-3.622-.012-.431.13-.506.526-.508,1.71-.007,1.71-.02,1.71,1.682,0,.85.017,1.7-.008,2.549-.01.344.084.532.427.621.581.15,1.154.329,1.789.513,0-.561.017-1.072-.006-1.58-.015-.332.065-.458.434-.472,1.8-.071,1.8-.084,1.8,1.734,0,1.015,0,1.009,1.013,1.305,1.112.326,2.224.653,3.33,1a2.974,2.974,0,0,1,2.276,3.08c-.007.532.141.663.661.654,1.833-.032,3.667-.024,5.5,0,.4,0,.558-.092.53-.519-.037-.556-.02-1.118-.006-1.676a2.193,2.193,0,0,1,2.187-2.241c.558-.027,1.119-.029,1.677,0,.409.021.612-.057.578-.536-.037-.528-.186-1.271.088-1.542.361-.357,1.1-.064,1.67-.122.378-.039.474.132.425.461a.333.333,0,0,0,0,.067c.03.531-.229,1.247.1,1.548.383.355,1.106.064,1.677.123.4.041.48-.134.473-.5-.021-1.14.01-2.281-.017-3.421-.01-.408.1-.524.518-.526,1.685-.008,1.685-.024,1.685,1.632,0,.783.015,1.566-.007,2.348-.009.335.064.492.437.467.576-.039,1.307.171,1.69-.109s.119-1.046.1-1.594c-.013-.445.153-.525.539-.5.531.038,1.222-.164,1.554.1.355.283.124,1.006.1,1.53-.022.5.169.6.613.572a15.154,15.154,0,0,1,1.609,0,2.2,2.2,0,0,1,2.223,2.277c.012.559.016,1.118,0,1.677-.011.318.037.487.425.484,1.945-.018,3.891-.015,5.836,0,.317,0,.4-.088.42-.412.1-2.075.705-2.833,2.7-3.436,1.13-.342,2.257-.7,3.4-1.006a.607.607,0,0,0,.537-.741c-.038-.579,0-1.163-.015-1.743-.011-.325.117-.406.428-.425,1.787-.1,1.786-.113,1.805,1.643,0,.11,0,.22,0,.411.682-.2,1.311-.395,1.945-.568.307-.084.261-.313.261-.532,0-1.23.013-2.46-.007-3.69-.007-.406.056-.639.54-.576.545.071,1.277-.236,1.6.123.271.305.087,1.018.1,1.551.007.425.021.851,0,1.274-.052.913-.061,1.675,1.016,2.188a2.625,2.625,0,0,1,1.2,2.6c-.012,3.868,0,7.737-.013,11.606,0,.442.062.71.541.889a3.119,3.119,0,0,1,1.686,1.951Zm-44.3-1.195c-.156-.008-.311-.022-.467-.022q-10.326,0-20.651,0c-1.093,0-1.313.395-.758,1.358a36.315,36.315,0,0,0,19.883,16.559,28.349,28.349,0,0,0,6.418,1.551,27.1,27.1,0,0,0,5.723.451,25.379,25.379,0,0,0,5.321-.452c.441-.057.888-.084,1.322-.175A36.386,36.386,0,0,0,66.2,159.346c.61-1.038.392-1.414-.8-1.415H40.526c-.2,0-.4.015-.6.023H24.461m9.949-2.261c2.392,0,4.784-.012,7.176.01.456,0,.6-.1.6-.582q-.033-4.963,0-9.925c0-.492-.159-.575-.605-.574q-7.176.023-14.352,0c-.454,0-.6.095-.6.579q.034,4.963,0,9.926c0,.49.157.581.605.577,2.392-.021,4.784-.01,7.176-.01M4.484,149.27c0,1.921.027,3.843-.016,5.763-.013.585.169.684.7.673q2.68-.053,5.361,0c.513.01.632-.14.624-.636-.029-1.966-.023-3.932-.007-5.9a2.21,2.21,0,0,1,2.355-2.344c.447-.007.9.028,1.339-.013.246-.023.65.228.718-.217a1.11,1.11,0,0,0-.359-1.213,1.833,1.833,0,0,0-.495-.2q-4.412-1.332-8.827-2.658c-.963-.289-1.395.036-1.4,1.04q0,2.848,0,5.7m59.847.087q0-2.848,0-5.7c0-1.108-.409-1.424-1.443-1.114q-4.382,1.316-8.762,2.639a3.175,3.175,0,0,0-.379.129c-.576.257-.563.785-.492,1.264.068.463.5.209.764.238a11,11,0,0,0,1.138.011,2.253,2.253,0,0,1,2.512,2.527c.006,1.921.018,3.842-.01,5.763-.007.483.148.591.6.585q2.781-.036,5.562,0c.412.005.521-.1.516-.516-.024-1.943-.011-3.887-.011-5.83m-45.453,6.336c1.675,0,3.351-.018,5.025.011.459.008.556-.142.551-.569q-.032-2.78,0-5.561c.006-.425-.128-.518-.53-.516q-5.025.023-10.051,0c-.376,0-.547.044-.54.494.029,1.876.025,3.752,0,5.628-.005.412.1.527.516.521,1.675-.024,3.35-.01,5.025-.01m31.054-6.626c-1.675,0-3.35.009-5.025-.007-.376,0-.555.045-.549.5q.041,2.814,0,5.628c-.005.427.135.518.534.516q5.025-.022,10.051,0c.385,0,.542-.06.535-.5q-.041-2.814,0-5.628c.006-.422-.115-.52-.521-.514-1.675.023-3.35.009-5.025.009" transform="translate(-0.048 -111.377)" fill="#3a61a7"/>
    <path id="Path_55240" data-name="Path 55240" d="M291.929,11.541a3.338,3.338,0,0,0-.329,1.187,10.608,10.608,0,0,1-1.972,3.84l-7.457,9.316c-.055.068-.118.13-.171.187-.159.016-.2-.111-.255-.185-2.5-3.121-5.02-6.229-7.494-9.371A10.157,10.157,0,0,1,276.657,1.53a10.23,10.23,0,0,1,3.53-1.38c.122-.024.278.023.336-.149h2.684c.043.041.081.112.129.12a9.758,9.758,0,0,1,8.111,6.829,19.651,19.651,0,0,1,.482,1.908Zm-9.974,11.064c1.962-2.451,3.887-4.853,5.808-7.259a12.007,12.007,0,0,0,.711-.971,7.858,7.858,0,0,0,1.235-4.107,7.769,7.769,0,0,0-9.2-7.907,7.867,7.867,0,0,0-4.673,12.572c1.963,2.573,4.031,5.065,6.115,7.673" transform="translate(-223.217 -0.001)" fill="#3a61a7"/>
    <path id="Path_55241" data-name="Path 55241" d="M11.145,0c.613.154,1.236.275,1.836.467a10.066,10.066,0,0,1,5.088,15.5c-2.562,3.464-5.346,6.762-8.027,10.13-.26-.083-.347-.3-.48-.47C7.143,22.61,4.718,19.6,2.318,16.571A10.149,10.149,0,0,1,5.427,1.106,9.712,9.712,0,0,1,8.332.138c.1-.017.229.013.263-.137ZM9.982,22.6c1.968-2.46,3.9-4.878,5.837-7.3a9.781,9.781,0,0,0,.676-.915,7.986,7.986,0,0,0,.95-6.492A7.746,7.746,0,0,0,2.256,9.4,8.086,8.086,0,0,0,4.091,15.25C6.056,17.677,8,20.124,9.982,22.6" transform="translate(0 -0.001)" fill="#3a61a7"/>
    <path id="Path_55242" data-name="Path 55242" d="M147.058,0a5.653,5.653,0,0,0,1.322.316,10.077,10.077,0,0,1,5.6,15.578c-2.49,3.407-5.239,6.625-7.863,9.934-.214.27-.333.258-.542-.005-2.625-3.309-5.395-6.513-7.859-9.936a10.051,10.051,0,0,1,6-15.655c.219-.05.5.015.658-.231Zm-8.973,10.041a7.565,7.565,0,0,0,1.5,4.693c1.978,2.534,4,5.03,6,7.551.216.273.321.263.531,0,2-2.52,4.046-5,5.993-7.555a7.484,7.484,0,0,0,1.319-6.35,7.755,7.755,0,0,0-15.344,1.663" transform="translate(-111.491)" fill="#f3a416"/>
    <path id="Path_55243" data-name="Path 55243" d="M202.333,259.71c.2-.008.4-.023.6-.023q12.438,0,24.876,0c1.19,0,1.407.376.8,1.414a36.386,36.386,0,0,1-24.946,17.878c-.434.091-.881.118-1.322.175-.011-1.469-.073-1.54-1.538-1.765a3.339,3.339,0,0,1-2.787-4.014,3.376,3.376,0,0,1,3.483-2.643c1.363-.016,2.726,0,4.089-.008.691-.005,1.146-.336,1.162-.94a3.558,3.558,0,0,1,4.034-3.5c1.963.079,3.932.012,5.9.017a1.1,1.1,0,0,0,1.057-.575,1.034,1.034,0,0,0-.082-1.136,1.158,1.158,0,0,0-1.109-.473q-5.363.008-10.726,0a3.426,3.426,0,0,1-2.57-1.092,4.242,4.242,0,0,1-.919-3.316" transform="translate(-162.457 -213.132)" fill="#77b81b"/>
    <path id="Path_55244" data-name="Path 55244" d="M34.681,259.71a5.4,5.4,0,0,1-.3,2.37,3.3,3.3,0,0,1-3.124,2.032c-2.144.023-4.289,0-6.434.01a1.113,1.113,0,0,0-1.253,1.1c-.01.637.485,1.062,1.261,1.08.223.005.447,0,.67,0q6.1,0,12.2,0a3.376,3.376,0,0,1,3.036,1.511,3.327,3.327,0,0,1-2.62,5.156c-.734.046-1.474.005-2.211.014s-1.188.39-1.221,1.042a1.012,1.012,0,0,0,1.048,1.132,3.5,3.5,0,0,1,3.374,4,28.358,28.358,0,0,1-6.418-1.551,36.313,36.313,0,0,1-19.883-16.559c-.555-.964-.335-1.358.758-1.358q10.326,0,20.651,0c.156,0,.311.015.467.022" transform="translate(-10.269 -213.132)" fill="#77b81b"/>
    <path id="Path_55245" data-name="Path 55245" d="M187.735,198.874c0,1.1,0,1.1-1.112,1.1-1.083,0-1.083,0-1.083-1.067,0-1.173,0-1.173,1.179-1.173,1.016,0,1.016,0,1.016,1.135" transform="translate(-152.278 -162.29)" fill="#3a61a7"/>
    <path id="Path_55246" data-name="Path 55246" d="M161.945,222.463c1.066,0,1.066,0,1.066,1.086,0,1.154,0,1.154-1.127,1.154-1.068,0-1.068,0-1.068-1.081,0-1.159,0-1.159,1.129-1.159" transform="translate(-131.987 -182.582)" fill="#3a61a7"/>
    <path id="Path_55247" data-name="Path 55247" d="M187.736,223.582c0,1.121,0,1.121-1.094,1.121s-1.1,0-1.1-1.113,0-1.126,1.094-1.126,1.1,0,1.1,1.119" transform="translate(-152.279 -182.582)" fill="#3a61a7"/>
    <path id="Path_55248" data-name="Path 55248" d="M210.263,223.6c0-1.14,0-1.14,1.145-1.14,1.05,0,1.05,0,1.05,1.038,0,1.2,0,1.2-1.214,1.2-.981,0-.981,0-.981-1.1" transform="translate(-172.569 -182.582)" fill="#3a61a7"/>
    <path id="Path_55249" data-name="Path 55249" d="M211.384,197.739c1.074,0,1.074,0,1.074,1.079,0,1.161,0,1.161-1.19,1.161-1.005,0-1.005,0-1.005-1.011v-.133c0-1.1,0-1.1,1.121-1.1" transform="translate(-172.569 -162.29)" fill="#3a61a7"/>
    <path id="Path_55250" data-name="Path 55250" d="M163.012,198.91c0,1.069,0,1.069-1.08,1.069-1.115,0-1.115,0-1.115-1.1,0-1.137,0-1.137,1.149-1.137,1.046,0,1.046,0,1.046,1.171" transform="translate(-131.987 -162.29)" fill="#3a61a7"/>
    <path id="Path_55251" data-name="Path 55251" d="M39.357,223.566c0,1.137,0,1.137-1.146,1.137-1.063,0-1.063,0-1.063-1.1,0-1.142,0-1.142,1.159-1.142,1.05,0,1.05,0,1.05,1.1" transform="translate(-30.488 -182.582)" fill="#3a61a7"/>
    <path id="Path_55252" data-name="Path 55252" d="M39.357,198.7c0,1.136,0,1.136-1.148,1.136-1.061,0-1.061,0-1.061-1.035,0-1.2,0-1.2,1.227-1.2a.77.77,0,0,0,.133,0c.682-.124.981.136.85.838a1.486,1.486,0,0,0,0,.267" transform="translate(-30.488 -162.15)" fill="#3a61a7"/>
    <path id="Path_55253" data-name="Path 55253" d="M333.857,223.525c0-1.062,0-1.062,1.09-1.062,1.118,0,1.118,0,1.118,1.116s0,1.124-1.1,1.124-1.105,0-1.105-1.177" transform="translate(-274.006 -182.582)" fill="#3a61a7"/>
    <path id="Path_55254" data-name="Path 55254" d="M333.857,198.843c0-1.1,0-1.1,1.115-1.1,1.094,0,1.094,0,1.094,1.071,0,1.169,0,1.169-1.194,1.169-1.014,0-1.014,0-1.014-1.136" transform="translate(-274.006 -162.29)" fill="#3a61a7"/>
    <path id="Path_55255" data-name="Path 55255" d="M88.827,223.623c0,1.08,0,1.08-1.067,1.08-1.134,0-1.134,0-1.134-1.155,0-1.085,0-1.085,1.076-1.085,1.125,0,1.125,0,1.125,1.16" transform="translate(-71.097 -182.582)" fill="#3a61a7"/>
    <path id="Path_55256" data-name="Path 55256" d="M112.517,224.7c-1.159,0-1.159,0-1.159-1.194,0-1.046,0-1.046,1.046-1.046,1.152,0,1.152,0,1.152,1.132v.066c0,1.041,0,1.041-1.039,1.041" transform="translate(-91.395 -182.582)" fill="#3a61a7"/>
    <path id="Path_55257" data-name="Path 55257" d="M259.7,223.571c0-1.108,0-1.108,1.11-1.108,1.088,0,1.088,0,1.088,1.07,0,1.169,0,1.169-1.184,1.169-1.015,0-1.015,0-1.015-1.132" transform="translate(-213.148 -182.582)" fill="#3a61a7"/>
    <path id="Path_55258" data-name="Path 55258" d="M285.46,224.621c-1.037,0-1.037,0-1.037-1.043,0-1.2,0-1.2,1.221-1.2a2.673,2.673,0,0,0,.4,0c.469-.072.651.12.584.585a3.288,3.288,0,0,0,0,.466c0,1.192,0,1.192-1.163,1.192" transform="translate(-233.435 -182.501)" fill="#3a61a7"/>
    <path id="Path_55259" data-name="Path 55259" d="M307.817,30.316a5.542,5.542,0,1,1-5.493-5.586,5.568,5.568,0,0,1,5.493,5.586m-2.23-.063a3.313,3.313,0,1,0-3.3,3.331,3.289,3.289,0,0,0,3.3-3.331" transform="translate(-243.537 -20.297)" fill="#3a61a7"/>
    <path id="Path_55260" data-name="Path 55260" d="M24.763,30.242a5.542,5.542,0,1,1,5.513,5.572,5.562,5.562,0,0,1-5.513-5.572m5.562,3.343a3.313,3.313,0,1,0-3.333-3.294,3.306,3.306,0,0,0,3.333,3.294" transform="translate(-20.324 -20.297)" fill="#3a61a7"/>
    <path id="Path_55261" data-name="Path 55261" d="M160.846,30.28a5.524,5.524,0,1,1,5.535,5.534,5.53,5.53,0,0,1-5.535-5.534m5.485,3.3a3.314,3.314,0,1,0-3.291-3.354,3.337,3.337,0,0,0,3.291,3.354" transform="translate(-132.011 -20.296)" fill="#f3a416"/>
  </g>
</svg>
