<svg id="plumbing" xmlns="http://www.w3.org/2000/svg" xmlns:xlink="http://www.w3.org/1999/xlink" width="48.847" height="66.724" viewBox="0 0 48.847 66.724">
  <defs>
    <clipPath id="clip-path">
      <rect id="Rectangle_10308" data-name="Rectangle 10308" width="4.024" height="33.623" fill="none"/>
    </clipPath>
    <clipPath id="clip-path-2">
      <rect id="Rectangle_10310" data-name="Rectangle 10310" width="6.037" height="3.581" fill="none"/>
    </clipPath>
    <clipPath id="clip-path-3">
      <rect id="Rectangle_10312" data-name="Rectangle 10312" width="6.037" height="1.792" fill="none"/>
    </clipPath>
    <clipPath id="clip-path-4">
      <rect id="Rectangle_10314" data-name="Rectangle 10314" width="14.495" height="14.503" fill="none"/>
    </clipPath>
  </defs>
  <g id="Group_89046" data-name="Group 89046" transform="translate(0 0)">
    <path id="Path_55162" data-name="Path 55162" d="M37.423,30.96v48.6a4.113,4.113,0,0,1-8.227,0V30.96Z" transform="translate(-28.603 -16.946)" fill="#284a88"/>
    <rect id="Rectangle_10304" data-name="Rectangle 10304" width="3.707" height="3.993" transform="translate(12.569 21.167)" fill="#f2f2f2"/>
    <path id="Path_55163" data-name="Path 55163" d="M45.574,30.96v7.263c0,.162,0,.326-.01.479a1.476,1.476,0,0,0-.213-.01,7.953,7.953,0,0,0-7.956,7.72h-.01a7.961,7.961,0,0,1-1.313-.1A8.2,8.2,0,0,1,29.2,38.223V30.96Z" transform="translate(-28.603 -16.946)" fill="#284a88"/>
    <rect id="Rectangle_10305" data-name="Rectangle 10305" width="8.488" height="3.607" transform="translate(10.397 16.437)" fill="#ea8249"/>
    <rect id="Rectangle_10306" data-name="Rectangle 10306" width="9.93" height="2.546" transform="translate(0 12.236)" fill="#284a88"/>
    <path id="Path_55164" data-name="Path 55164" d="M44.859,24.856v6.558H41.146V26.284a1.068,1.068,0,0,0,.009-.127,1.037,1.037,0,0,0-.009-.127,1.007,1.007,0,0,0-.893-.869,1.256,1.256,0,0,0-.2,0h-10.1v-.3a7.4,7.4,0,0,1,1.22-4.083,7.616,7.616,0,0,1,.958-1.191,7.462,7.462,0,0,1,12.733,5.274" transform="translate(-28.578 -17.401)" fill="#284a88"/>
    <rect id="Rectangle_10307" data-name="Rectangle 10307" width="9.93" height="2.547" transform="translate(0 7.006)" fill="#234076"/>
    <g id="Group_89030" data-name="Group 89030" transform="translate(2.695 30.736)" opacity="0.45" style="mix-blend-mode: multiply;isolation: isolate">
      <g id="Group_89029" data-name="Group 89029">
        <g id="Group_89028" data-name="Group 89028" clip-path="url(#clip-path)">
          <path id="Path_55165" data-name="Path 55165" d="M35.254,78.752a2.012,2.012,0,0,1-4.024,0v-29.6a2.012,2.012,0,1,1,4.024,0Z" transform="translate(-31.229 -47.14)" fill="#b3b3b3"/>
        </g>
      </g>
    </g>
    <g id="Group_89033" data-name="Group 89033" transform="translate(2.4 16.438)" opacity="0.45" style="mix-blend-mode: multiply;isolation: isolate">
      <g id="Group_89032" data-name="Group 89032">
        <g id="Group_89031" data-name="Group 89031" clip-path="url(#clip-path-2)">
          <rect id="Rectangle_10309" data-name="Rectangle 10309" width="6.037" height="3.581" transform="translate(0 0)" fill="#b3b3b3"/>
        </g>
      </g>
    </g>
    <g id="Group_89036" data-name="Group 89036" transform="translate(2.4 21.167)" opacity="0.45" style="mix-blend-mode: multiply;isolation: isolate">
      <g id="Group_89035" data-name="Group 89035">
        <g id="Group_89034" data-name="Group 89034" clip-path="url(#clip-path-3)">
          <rect id="Rectangle_10311" data-name="Rectangle 10311" width="6.037" height="1.792" transform="translate(0 0)" fill="#b3b3b3"/>
        </g>
      </g>
    </g>
    <path id="Path_55166" data-name="Path 55166" d="M63.022,64.285a3.132,3.132,0,0,1-6.264,0V20.611a3.132,3.132,0,1,1,6.264,0Z" transform="translate(-27.678 -17.398)" fill="#ea8249"/>
    <rect id="Rectangle_10313" data-name="Rectangle 10313" width="7.518" height="8.591" transform="translate(28.452 42.59)" fill="#b94e52"/>
    <path id="Path_55167" data-name="Path 55167" d="M74.757,76.573h-29a14.5,14.5,0,0,1,29,0" transform="translate(-28.047 -15.903)" fill="#f86a6f"/>
    <g id="Group_89039" data-name="Group 89039" transform="translate(32.211 46.167)" opacity="0.59" style="mix-blend-mode: multiply;isolation: isolate">
      <g id="Group_89038" data-name="Group 89038">
        <g id="Group_89037" data-name="Group 89037" clip-path="url(#clip-path-4)">
          <path id="Path_55168" data-name="Path 55168" d="M74.283,76.574h-14.5V62.07a14.5,14.5,0,0,1,14.5,14.5" transform="translate(-59.788 -62.07)" fill="#debfac"/>
        </g>
      </g>
    </g>
    <path id="Path_55169" data-name="Path 55169" d="M76.964,77.8a1.982,1.982,0,0,1-1.981,1.982H45.675a1.982,1.982,0,1,1,0-3.965H74.982A1.982,1.982,0,0,1,76.964,77.8" transform="translate(-28.117 -15.442)" fill="#f68879"/>
  </g>
</svg>
