<svg id="service_provider" data-name="service provider" xmlns="http://www.w3.org/2000/svg" width="67.38" height="68.803" viewBox="0 0 67.38 68.803">
  <g id="Group_90526" data-name="Group 90526" transform="translate(0 0)">
    <path id="Path_55349" data-name="Path 55349" d="M270.968,186.044c-1.4,1.393-2.69,2.7-4.011,3.969a1.482,1.482,0,0,0-.424,1.693q.69,2.155,1.3,4.335a1.489,1.489,0,0,0,1.116,1.115c1.471.426,2.945.847,4.4,1.316a1.39,1.39,0,0,0,1.568-.407c1.142-1.162,2.3-2.307,3.455-3.457.161-.16.329-.311.581-.548a7.279,7.279,0,0,1-.394,2.8,8.261,8.261,0,0,1-9.62,5.475,2.184,2.184,0,0,1-1.135-.622q-2.175-2.219-4.4-4.393a2.757,2.757,0,0,1-.806-1.491,8.25,8.25,0,0,1,8.365-9.783" transform="translate(-213.454 -151.633)" fill="#f9ba53"/>
    <path id="Path_55311" data-name="Path 55311" d="M18.986,30.2a14.251,14.251,0,0,1-5.332-11.289c-.043-3.147-.027-6.3-.006-9.443A9.412,9.412,0,0,1,23.108.054a40.347,40.347,0,0,1,6.169.13A9.4,9.4,0,0,1,37.125,9.13c.048,3.424.1,6.852-.014,10.273a13.969,13.969,0,0,1-5.329,10.8c.448,0,.776-.01,1.1,0,.23.01.31-.073.349-.306a1.044,1.044,0,0,1,1.122-.924q3.61-.023,7.221,0a1.013,1.013,0,0,1,1.107.851c.064.383.278.41.567.441a8.759,8.759,0,0,1,6.881,4.5,10.59,10.59,0,0,1,5.513-2.418,9.995,9.995,0,0,1,3.988.281,1.115,1.115,0,0,1,.541,2.005q-2.359,2.4-4.766,4.758a.831.831,0,0,0-.245,1.027,14.868,14.868,0,0,1,.675,2.252A1.272,1.272,0,0,0,56.931,43.8c.785.183,1.555.434,2.32.691a.8.8,0,0,0,.96-.233c1.534-1.575,3.1-3.122,4.656-4.672.94-.935,1.837-.691,2.173.582A10.427,10.427,0,0,1,54.833,52.911a1.016,1.016,0,0,0-1.086.312Q46.781,60.2,39.789,67.151a5.169,5.169,0,0,1-8.87-4.46c.055-.342.036-.472-.33-.43a4.327,4.327,0,0,1-.486,0H1.635c-1.326,0-1.63-.3-1.63-1.63,0-7.2-.014-14.4.007-21.594a8.712,8.712,0,0,1,6.947-8.615c.567-.126,1.15-.093,1.29-.911.072-.418.587-.543,1.031-.543q3.541,0,7.082,0c.5,0,1.011.179,1.1.668.108.6.431.594.864.56.175-.014.352,0,.661,0M33.939,17.291a1.573,1.573,0,0,0,.97-1.462c.048-.461-.157-.578-.564-.485q-5.239-.014-10.479-.026c-2.475,0-4.951.015-7.426-.013-.533-.006-.619.2-.566.652A1.855,1.855,0,0,0,17.9,17.551q7.5.008,14.992,0a1.579,1.579,0,0,0,1.05-.262m14.024,19.99c.186-.314.629-.538.415-1a5.539,5.539,0,0,0-2.07-2.508A5.865,5.865,0,0,0,43.5,32.537c-.533-.108-.715-.018-.711.579.026,4.231.014,8.462.014,12.693,0,1.166,0,2.332,0,3.635,1.384-1.374,2.654-2.638,3.927-3.9.141-.14.1-.287.058-.448a10.522,10.522,0,0,1,1.179-7.815m-8.339,10.94a1.979,1.979,0,0,0,.831-1.59c.017-4.991.013-9.982.032-14.973,0-.438-.2-.479-.546-.476-1.363.011-2.727,0-4.09.006-.126,0-.283-.056-.36.115-.013.16-.036.321-.036.481q0,7.278,0,14.556a2.362,2.362,0,0,0,1.475,2.3,2.312,2.312,0,0,0,2.69-.421M10.347,31.3c-.013.137-.038.274-.038.412q0,7.319.006,14.639a2.329,2.329,0,0,0,1.477,2.294,2.317,2.317,0,0,0,2.691-.433,1.985,1.985,0,0,0,.828-1.594c.019-4.987.011-9.975.028-14.962,0-.439-.2-.478-.545-.475-1.362.011-2.724,0-4.087.006-.127,0-.282-.055-.36.114m21.1-3.849a6.662,6.662,0,0,0,1.538-1.841,12.574,12.574,0,0,0,1.925-6.238l-.705.275a10.68,10.68,0,0,1-2.072.125c-4.051,0-8.1.011-12.152-.008a10.126,10.126,0,0,1-4.131-.39c.31,3.688,1.575,6.788,4.526,9.022a8.211,8.211,0,0,0,11.071-.944M10.307,50.461v.682c0,2.732.018,5.463-.014,8.195-.007.582.156.719.728.717q10.278-.031,20.556,0a1.544,1.544,0,0,0,1.205-.517c2.3-2.319,4.589-4.644,6.936-6.911a2.022,2.022,0,0,0,.712-2.084,1.063,1.063,0,0,0-.178.044c-3.066,1.308-5.593.269-6.862-2.858-.141-.348-.348-.308-.59-.308-4.931,0-9.862,0-14.792-.011-.395,0-.54.122-.667.5A4.651,4.651,0,0,1,14.5,50.849a4.785,4.785,0,0,1-4.2-.387m7.479-17.937a.788.788,0,0,0-.138.62c0,3.773.011,7.547-.017,11.32,0,.608.206.714.755.712q7.014-.03,14.029,0c.568,0,.748-.137.744-.727-.026-3.75-.012-7.5-.017-11.251A.827.827,0,0,0,33,32.533l-1.932,2.35a7.234,7.234,0,0,1-11.354-.017c-.626-.77-1.262-1.533-1.928-2.341M33.06,63.6a2.939,2.939,0,0,0,4.985,2.14c3.922-3.9,7.824-7.812,11.746-11.708.273-.271.228-.409-.015-.648C48.6,52.233,47.436,51.078,46.3,49.9c-.307-.318-.463-.284-.757.012q-5.776,5.8-11.577,11.583a2.87,2.87,0,0,0-.9,2.109M25.314,13.095c2.916,0,5.832-.016,8.748.012.631.006.908-.114.856-.826-.071-.99-.011-1.989-.027-2.984a7.187,7.187,0,0,0-5.846-6.886,34.775,34.775,0,0,0-6.026-.13,7.165,7.165,0,0,0-7.028,5.93,34.388,34.388,0,0,0-.134,4.085c-.038.609.112.825.779.816,2.892-.041,5.785-.018,8.678-.018M57.18,34.531a8.2,8.2,0,0,0-8.318,9.728,2.741,2.741,0,0,0,.8,1.482c1.476,1.436,2.929,2.9,4.371,4.368a2.171,2.171,0,0,0,1.129.618,8.213,8.213,0,0,0,9.565-5.444,7.238,7.238,0,0,0,.392-2.782c-.25.235-.418.386-.578.545-1.147,1.144-2.3,2.282-3.435,3.438a1.382,1.382,0,0,1-1.559.405C58.1,46.422,56.634,46,55.171,45.58a1.481,1.481,0,0,1-1.109-1.109q-.608-2.166-1.292-4.31a1.474,1.474,0,0,1,.422-1.684c1.314-1.263,2.594-2.562,3.989-3.946m-49.188,6.5c0-2.638-.006-5.276.006-7.914,0-.426-.062-.641-.57-.548a6.519,6.519,0,0,0-5.16,5.882c-.073,3.516-.023,7.034-.043,10.552,0,.4.137.508.52.5,1.55-.018,3.1-.027,4.651,0,.506.01.609-.169.605-.635-.02-2.615-.01-5.23-.01-7.844M5.075,60.042c.808,0,1.616-.01,2.423.005.325.006.517-.04.507-.441-.024-.946-.016-1.893,0-2.839,0-.318-.088-.45-.431-.447q-2.458.021-4.916,0c-.338,0-.439.118-.434.442.015.946.021,1.893,0,2.839-.01.395.168.453.5.446.784-.017,1.569-.006,2.354-.006M20.706,32.5c1.15,1.717,2.544,2.869,4.654,2.882,2.14.013,3.559-1.139,4.727-2.882ZM5.079,54.1H6.188c1.859,0,1.839,0,1.821-1.834,0-.493-.2-.559-.611-.551-1.132.021-2.264.007-3.4.007-1.806,0-1.792,0-1.782,1.8,0,.437.1.616.572.593.761-.037,1.524-.01,2.287-.01M52.3,51.566c-.15-.171-.234-.278-.33-.374-1.172-1.174-2.352-2.339-3.512-3.523-.259-.264-.42-.246-.67,0s-.218.391.012.617c1.2,1.18,2.379,2.376,3.574,3.559.095.094.17.322.379.165.184-.138.356-.291.547-.448" transform="translate(0 0)" fill="#3a61a7"/>
    <path id="Path_55316" data-name="Path 55316" d="M59.727,185.544a2.491,2.491,0,0,1-4.168-1.86q0-7.319-.006-14.639c0-.137.025-.275.038-.412,1.27,0,2.541.04,3.809-.011.636-.025.762.2.759.788q-.035,6.857,0,13.715a5.562,5.562,0,0,1-.428,2.419m-2.776-4.233c0,1.818,0,1.807,1.752,1.749.353-.012.489-.1.478-.468-.024-.807-.032-1.616,0-2.423.019-.438-.133-.535-.55-.539-1.683-.014-1.683-.029-1.683,1.681" transform="translate(-45.244 -137.331)" fill="#77b81b"/>
    <path id="Path_55317" data-name="Path 55317" d="M195.233,185.609a2.312,2.312,0,0,1-2.69.421,2.362,2.362,0,0,1-1.475-2.3q0-7.278,0-14.557c0-.16.024-.321.036-.481,1.132,0,2.263,0,3.395.006,1.32.011,1.153-.172,1.155,1.121.006,4.434-.007,8.868.011,13.3a5.779,5.779,0,0,1-.427,2.489m-2.771-4.27c0,1.886,0,1.877,1.793,1.777.327-.018.443-.11.436-.44-.017-.83-.025-1.661,0-2.49.014-.41-.146-.489-.521-.5-1.711-.036-1.711-.047-1.711,1.651" transform="translate(-155.609 -137.387)" fill="#8dd527"/>
    <path id="Path_55320" data-name="Path 55320" d="M195.393,185.069a5.782,5.782,0,0,0,.428-2.489c-.018-4.434,0-8.868-.011-13.3,0-1.294.164-1.11-1.155-1.121-1.132-.01-2.263,0-3.395-.006.077-.171.233-.114.36-.115,1.363,0,2.727,0,4.09-.006.346,0,.548.039.546.476-.019,4.991-.014,9.982-.032,14.973a1.979,1.979,0,0,1-.831,1.59" transform="translate(-155.769 -136.847)" fill="none"/>
    <path id="Path_55321" data-name="Path 55321" d="M59.894,185.061a5.561,5.561,0,0,0,.428-2.419q-.027-6.857,0-13.715c0-.59-.124-.813-.759-.788-1.268.05-2.539.012-3.809.011.078-.169.234-.114.361-.114,1.362,0,2.724,0,4.087-.006.345,0,.547.036.545.475-.018,4.987-.009,9.975-.028,14.962a1.986,1.986,0,0,1-.828,1.594" transform="translate(-45.411 -136.848)" fill="none"/>
    <path id="Path_55324" data-name="Path 55324" d="M182.895,84.506a5.016,5.016,0,0,0,.406-1.947c.407-.093.611.025.564.485a1.573,1.573,0,0,1-.97,1.462" transform="translate(-148.956 -67.215)" fill="#0c6ac1"/>
    <path id="Path_55329" data-name="Path 55329" d="M122.077,35.446c.623,0,1.246-.013,1.869,0a1.428,1.428,0,0,1,1.468,1.5c.061,1.143-.389,1.872-1.323,1.916-1.358.063-2.723.062-4.082,0-.938-.042-1.394-.772-1.33-1.909a1.432,1.432,0,0,1,1.529-1.51c.623-.01,1.246,0,1.869,0" transform="translate(-96.652 -28.865)" fill="#f9ba53"/>
  </g>
</svg>
